<svg xmlns="http://www.w3.org/2000/svg" viewBox="0 0 64 64">
  <rect width="64" height="64" rx="16" fill="#F8F4ED"/>
  <rect x="1.5" y="1.5" width="61" height="61" rx="14.5" fill="none" stroke="#D8D1C5"/>
  <path d="M15 18 28 32 15 46" fill="none" stroke="#1E2A44" stroke-linecap="round" stroke-linejoin="round" stroke-width="6"/>
  <path d="M28 32h15" fill="none" stroke="#1E2A44" stroke-linecap="round" stroke-linejoin="round" stroke-width="6"/>
  <path d="M43 18 30 32 43 46" fill="none" stroke="#1E2A44" stroke-linecap="round" stroke-linejoin="round" stroke-width="6"/>
  <path d="M33 14v36" fill="none" stroke="#F28C28" stroke-linecap="round" stroke-width="4"/>
  <path d="M39 21c-1.6-2-4.1-3.2-6.8-3.2-4 0-6.9 2.1-6.9 5.2 0 3 2.5 4.3 6.2 5.1 4.5 1 7.8 2 7.8 5.9 0 3.8-3.3 6.3-8.1 6.3-3.4 0-6.4-1.3-8.5-3.7" fill="none" stroke="#0EA5B7" stroke-linecap="round" stroke-linejoin="round" stroke-width="3.4"/>
</svg>